<svg xmlns="http://www.w3.org/2000/svg" version="1.1" x="0px" y="0px" viewBox="0 0 100 125" style="enable-background:new 0 0 100 100;" xml:space="preserve" fill="white"><path d="M52.1,19.19c-2.59-1.2-5.55-0.8-7.73,1.04l-14.6,12.32c-0.5,0.42-1.14,0.66-1.79,0.66H14.75c-4,0-7.25,3.25-7.25,7.25V50 v9.54c0,4,3.25,7.25,7.25,7.25h13.22c0.66,0,1.29,0.23,1.79,0.66l14.6,12.32c1.34,1.14,2.99,1.72,4.66,1.72 c1.04,0,2.08-0.23,3.08-0.69c2.59-1.2,4.19-3.72,4.19-6.58V50V25.77C56.29,22.92,54.69,20.4,52.1,19.19z M50.07,50v24.23 c0,0.42-0.22,0.76-0.6,0.93c-0.38,0.18-0.78,0.12-1.1-0.15l-14.6-12.32c-1.62-1.37-3.68-2.12-5.81-2.12H14.75 c-0.57,0-1.03-0.46-1.03-1.03V50v-9.54c0-0.57,0.46-1.03,1.03-1.03h13.22c2.12,0,4.18-0.75,5.81-2.12l14.6-12.33 c0.32-0.27,0.72-0.32,1.1-0.15c0.38,0.18,0.6,0.52,0.6,0.94V50z"/><line x1="65" y1="38" x2="88" y2="62" stroke="white" stroke-width="6" stroke-linecap="round"/><line x1="88" y1="38" x2="65" y2="62" stroke="white" stroke-width="6" stroke-linecap="round"/></svg>
